Coordinates
version=1
nRows=32
nColumns=22
inDegrees=yes

Units are S.I. units (second, meters, Newtons, ...)
If the header above contains a line with 'inDegrees', this indicates whether rotational values are in degrees (yes) or radians (no).

endheader
time	pelvis_tilt	pelvis_list	pelvis_rotation	pelvis_tx	pelvis_ty	pelvis_tz	hip_flexion_r	hip_adduction_r	hip_rotation_r	knee_angle_r	ankle_angle_r	subtalar_angle_r	hip_flexion_l	hip_adduction_l	hip_rotation_l	knee_angle_l	ankle_angle_l	subtalar_angle_l	lumbar_extension	lumbar_bending	lumbar_rotation
      1.38000000	     -1.85036946	     -4.67594530	     -6.57359077	     -1.35529451	      1.01896131	     -0.42562641	      2.35845673	      8.58267555	     -5.76681123	    -11.18172222	     10.17833547	     -6.43371356	      6.04352564	     -5.86934504	     -4.39607529	    -19.17015510	     14.95187909	      1.55060439	    -11.27760563	      3.73227966	      1.39204461
      1.39000000	     -1.84433743	     -4.86341878	     -6.49251592	     -1.35496750	      1.01846444	     -0.42437683	      2.31278416	      8.86068390	     -5.71892568	    -11.21074649	     10.25663818	     -6.45328115	      6.74959695	     -6.15505433	     -4.04166940	    -20.55319949	     15.13640970	      1.64739404	    -11.48700632	      3.91137577	      1.47030489
      1.40000000	     -1.85549461	     -5.05888296	     -6.39478953	     -1.35463431	      1.01791143	     -0.42315602	      2.25243598	      9.14801783	     -5.69390206	    -11.17822780	     10.35579276	     -6.45119532	      7.56043748	     -6.44315083	     -3.64867299	    -22.08403114	     15.23121537	      1.77080475	    -11.67811491	      4.10289346	      1.55249061
      1.41000000	     -1.81840482	     -5.27745234	     -6.28466399	     -1.35426815	      1.01742666	     -0.42195252	      2.10252853	      9.45495507	     -5.67499090	    -11.08259063	     10.41476366	     -6.42737114	      8.38300854	     -6.74061765	     -3.22426673	    -23.72790764	     15.28754470	      1.87778705	    -11.93359330	      4.30963862	      1.64218118
      1.42000000	     -1.72731775	     -5.51256443	     -6.16772345	     -1.35384550	      1.01703643	     -0.42076520	      1.85336511	      9.77462066	     -5.65347535	    -10.91844939	     10.44577760	     -6.39838087	      9.19971865	     -7.04025788	     -2.78778229	    -25.46472988	     15.29207787	      1.96227606	    -12.25648263	      4.52470748	      1.75045723
      1.43000000	     -1.71156641	     -5.71490022	     -6.02701746	     -1.35338191	      1.01655146	     -0.41962707	      1.66462534	     10.06593697	     -5.68105834	    -10.70987555	     10.51804448	     -6.34459770	     10.17163136	     -7.29882301	     -2.32020541	    -27.30618103	     15.13807139	      2.15943390	    -12.47935880	      4.70943318	      1.83769687
      1.44000000	     -1.63834574	     -5.92065437	     -5.87448341	     -1.35280493	      1.01619953	     -0.41853063	      1.36802163	     10.35551210	     -5.71146531	    -10.42491019	     10.54588565	     -6.29278150	     11.11198272	     -7.54351758	     -1.85848397	    -29.19144787	     14.92318902	      2.33901341	    -12.76420411	      4.88987420	      1.93064455
      1.45000000	     -1.52824225	     -6.11880618	     -5.70457438	     -1.35211087	      1.01595546	     -0.41749934	      0.99830716	     10.63251326	     -5.75350416	    -10.08528222	     10.53625585	     -6.24065822	     12.03768597	     -7.76379045	     -1.40266160	    -31.09871989	     14.63695628	      2.49501921	    -13.08476162	      5.05840779	      2.01283955
      1.46000000	     -1.46858212	     -6.28676948	     -5.50129581	     -1.35127518	      1.01567182	     -0.41659336	      0.66263976	     10.87639342	     -5.87422626	     -9.70842626	     10.56164528	     -6.16085032	     13.04531610	     -7.93193641	     -0.91296799	    -33.01253649	     14.26140630	      2.74791658	    -13.32249477	      5.20593531	      2.09190899
      1.47000000	     -1.37897165	     -6.44512897	     -5.25866735	     -1.35026703	      1.01547438	     -0.41584280	      0.26776135	     11.10227605	     -6.03757841	     -9.28795828	     10.54682807	     -6.07099638	     14.02948698	     -8.06555518	     -0.42478462	    -34.89569694	     13.86906609	      2.95245514	    -13.57785776	      5.35581687	      2.13087901
      1.48000000	     -1.26357670	     -6.60238000	     -4.98197218	     -1.34906270	      1.01535818	     -0.41524589	     -0.18577781	     11.32044925	     -6.25092797	     -8.81798379	     10.46916986	     -5.98113926	     14.97623731	     -8.17303516	      0.06245553	    -36.70718070	     13.48143733	      3.07561502	    -13.84308908	      5.51562863	      2.16907251
      1.49000000	     -1.19006938	     -6.73473734	     -4.67345048	     -1.34773186	      1.01518287	     -0.41481527	     -0.57881692	     11.50890096	     -6.52885080	     -8.37735433	     10.43749088	     -5.85828594	     15.97066623	     -8.22944445	      0.55608467	    -38.44532373	     13.12718526	      3.21459363	    -14.04293935	      5.67010132	      2.16815899
      1.50000000	     -1.13037142	     -6.84955062	     -4.38458471	     -1.34630222	      1.01500978	     -0.41444126	     -0.94457628	     11.67600697	     -6.80869665	     -7.96616832	     10.40334198	     -5.72707699	     16.95050486	     -8.25832982	      0.99873813	    -40.05786185	     12.84693644	      3.30454074	    -14.22192172	      5.80873738	      2.18815353
      1.51000000	     -1.08889529	     -6.94278262	     -4.14285795	     -1.34479421	      1.01483461	     -0.41404882	     -1.26923783	     11.81926104	     -7.05361473	     -7.60653013	     10.38308141	     -5.59943294	     17.90909239	     -8.27031546	      1.35258793	    -41.52196721	     12.65099963	      3.33932481	    -14.37951428	      5.91635400	      2.26130180
      1.52000000	     -1.07503032	     -7.00665193	     -3.98547444	     -1.34326336	      1.01465384	     -0.41355644	     -1.53147588	     11.93085113	     -7.22903151	     -7.31928936	     10.38234581	     -5.48286604	     18.84297974	     -8.27413352	      1.58492732	    -42.80908159	     12.54353491	      3.32731617	    -14.51636283	      5.97597029	      2.41326752
      1.53000000	     -1.08784721	     -7.03909861	     -3.92836170	     -1.34173569	      1.01447777	     -0.41290627	     -1.72700420	     12.00856768	     -7.31417359	     -7.11592701	     10.40654591	     -5.38863189	     19.74372820	     -8.28118556	      1.68026812	    -43.90057784	     12.50524566	      3.28034975	    -14.64128746	      5.97409464	      2.65356109
      1.54000000	     -1.12857870	     -7.02749245	     -3.95967191	     -1.34020332	      1.01431135	     -0.41215256	     -1.84750818	     12.03476513	     -7.32030763	     -7.00855476	     10.47485559	     -5.31931798	     20.61196075	     -8.27341155	      1.65268035	    -44.78468714	     12.49966643	      3.21508832	    -14.74973010	      5.90832416	      2.95806055
      1.55000000	     -1.14623723	     -6.99872786	     -4.06669248	     -1.33862767	      1.01423710	     -0.41127209	     -1.97599282	     12.03973520	     -7.24258727	     -6.94706781	     10.51772535	     -5.28670326	     21.38599415	     -8.28553792	      1.50850029	    -45.45009112	     12.55422049	      3.16029850	    -14.90088056	      5.79948054	      3.32548729
      1.56000000	     -1.18539779	     -6.93299029	     -4.21809617	     -1.33701783	      1.01417350	     -0.41034413	     -2.04577256	     12.00172692	     -7.12921726	     -6.95863681	     10.60148962	     -5.26857179	     22.12899360	     -8.27860578	      1.30283744	    -45.90595051	     12.60141758	      3.11785849	    -15.03556365	      5.64241261	      3.69698184
      1.57000000	     -1.20470207	     -6.84761924	     -4.39220048	     -1.33535333	      1.01417635	     -0.40940699	     -2.10790903	     11.93599220	     -7.00895062	     -7.03111975	     10.70869335	     -5.26156211	     22.79818032	     -8.26593897	      1.04989162	    -46.15404310	     12.63790551	      3.09785826	    -15.20332662	      5.45970579	      4.06510382
      1.58000000	     -1.25260339	     -6.72755997	     -4.57482996	     -1.33359297	      1.01416160	     -0.40847683	     -2.13552618	     11.83477856	     -6.84990841	     -7.11584558	     10.80995071	     -5.25649895	     23.44715572	     -8.22026577	      0.78943825	    -46.20010620	     12.67395068	      3.09878399	    -15.33182337	      5.24169305	      4.39372623
      1.59000000	     -1.29553998	     -6.59554591	     -4.74257549	     -1.33174171	      1.01415699	     -0.40759447	     -2.15520592	     11.71812218	     -6.70441156	     -7.23001028	     10.93252703	     -5.25645685	     24.05222626	     -8.15640080	      0.54691461	    -46.06612607	     12.67504384	      3.12580547	    -15.46545430	      5.01700410	      4.67256236
      1.60000000	     -1.33154442	     -6.44735917	     -4.88442301	     -1.32977207	      1.01415543	     -0.40679225	     -2.17824114	     11.58129071	     -6.57426956	     -7.35702262	     11.06631938	     -5.25850650	     24.61143545	     -8.06069359	      0.33856622	    -45.76003743	     12.64402126	      3.17711105	    -15.60246537	      4.78709728	      4.89413698
      1.61000000	     -1.35844988	     -6.28916381	     -4.98991767	     -1.32767569	      1.01414020	     -0.40608330	     -2.21318135	     11.43228514	     -6.46315603	     -7.48487321	     11.21032798	     -5.26341105	     25.13067893	     -7.92960492	      0.19220862	    -45.30571315	     12.58088239	      3.24465062	    -15.74351207	      4.55717494	      5.07367123
      1.62000000	     -1.38718154	     -6.13102100	     -5.08314100	     -1.32542246	      1.01409964	     -0.40540724	     -2.24224760	     11.28257506	     -6.36495305	     -7.63645476	     11.39401079	     -5.27829871	     25.60672221	     -7.79741137	      0.05865148	    -44.69562885	     12.47798574	      3.34654690	    -15.87136813	      4.33673500	      5.18328704
      1.63000000	     -1.40631927	     -5.96897569	     -5.14154202	     -1.32302540	      1.01403062	     -0.40482732	     -2.28573860	     11.12638758	     -6.28317064	     -7.78831310	     11.57788971	     -5.30062151	     26.04286489	     -7.63154189	     -0.00052125	    -43.96364386	     12.35285190	      3.45379347	    -16.00283989	      4.12413711	      5.25825526
      1.64000000	     -1.42050840	     -5.81159497	     -5.17758697	     -1.32047707	      1.01392368	     -0.40433520	     -2.33733041	     10.97171444	     -6.21145380	     -7.94930802	     11.77670935	     -5.33346184	     26.43988094	     -7.45162042	     -0.00951742	    -43.11473270	     12.20571145	      3.56436981	    -16.13206383	      3.93308789	      5.30061005
      1.65000000	     -1.43478909	     -5.66041664	     -5.19961575	     -1.31777570	      1.01376777	     -0.40390020	     -2.39279239	     10.82149610	     -6.14697646	     -8.11908320	     11.98981568	     -5.37676788	     26.80130135	     -7.26494071	      0.02519389	    -42.15912371	     12.03798598	      3.67921016	    -16.25166466	      3.75835544	      5.31411539
      1.66000000	     -1.45424636	     -5.51791806	     -5.21038614	     -1.31492455	      1.01355210	     -0.40352197	     -2.44926953	     10.67855614	     -6.08393472	     -8.29335487	     12.21404361	     -5.42722089	     27.13250067	     -7.07586419	      0.10325692	    -41.10731768	     11.85216750	      3.79814061	    -16.35623442	      3.60455955	      5.30639552
      1.67000000	     -1.48023645	     -5.38513895	     -5.21654091	     -1.31192683	      1.01327470	     -0.40320268	     -2.50367674	     10.54301690	     -6.02180421	     -8.47725605	     12.45214436	     -5.48391382	     27.43309134	     -6.88751672	      0.21860593	    -39.96728368	     11.64853611	      3.93171133	    -16.44544440	      3.47274498	      5.28794200
      1.68000000	     -1.51172465	     -5.25987428	     -5.22480327	     -1.30878413	      1.01293545	     -0.40291998	     -2.55742846	     10.41271022	     -5.96019913	     -8.67030557	     12.70549631	     -5.54598676	     27.70145985	     -6.70348390	      0.36461026	    -38.74935910	     11.42741665	      4.09404748	    -16.51931529	      3.35660138	      5.26330196
      1.69000000	     -1.54825992	     -5.14187570	     -5.24008215	     -1.30548404	      1.01253772	     -0.40268253	     -2.61612698	     10.28524308	     -5.89455955	     -8.86577868	     12.97282664	     -5.61036720	     27.93563773	     -6.52621109	      0.53038240	    -37.46357567	     11.19223207	      4.29642828	    -16.57862942	      3.25630181	      5.23886934
